<svg width="16" height="16" viewBox="0 0 16 16" fill="none" xmlns="http://www.w3.org/2000/svg">
<g clip-path="url(#clip0_117_4636)">
<path d="M7.89129 15.5012C9.63042 15.5012 11.3116 14.8685 12.6522 13.7134L7.43476 8.51935C7.28988 8.38695 7.26088 8.26189 7.26088 8.06326V0.522315C3.5 0.85338 0.5 4.11253 0.5 7.99702C0.5 12.1023 3.85507 15.5012 7.89129 15.5012ZM15.2826 7.99702C15.2826 6.89348 15.0145 5.73843 14.558 4.79673L8.63771 8.25455L13.3696 12.9998C14.558 11.6829 15.2826 9.87307 15.2826 7.99702ZM8.23188 7.34964L14.0797 3.93597C12.8189 1.9275 10.5363 0.595885 8.23188 0.500244V7.34964Z" fill="#F3EEFE" fill-opacity="0.85"/>
</g>
<defs>
<clipPath id="clip0_117_4636">
<rect width="15" height="15.0009" fill="white" transform="translate(0.5 0.500244)"/>
</clipPath>
</defs>
</svg>
