<svg width="20" height="17" viewBox="0 0 20 17" fill="none" xmlns="http://www.w3.org/2000/svg">
<g clip-path="url(#clip0_117_3683)">
<path d="M8.6044 11.2366C8.03127 11.2366 7.69556 10.9106 7.69556 10.3258V9.64902C5.2884 9.48189 2.88943 8.98059 0.400391 8.0197V6.64111C3.46256 8.01136 6.53292 8.49597 9.87348 8.49597C13.2222 8.49597 16.2926 8.01136 19.3547 6.64111V8.0197C16.8657 8.98059 14.4667 9.48189 12.0596 9.64902V10.3258C12.0596 10.9106 11.7239 11.2366 11.1507 11.2366H8.6044ZM2.93036 16.7928H16.8248C18.5196 16.7928 19.3547 15.9573 19.3547 14.2444V6.11473C19.3547 4.40189 18.5196 3.56636 16.8248 3.56636H2.93036C1.24371 3.56636 0.400391 4.40189 0.400391 6.11473V14.2444C0.400391 15.9573 1.24371 16.7928 2.93036 16.7928ZM5.72235 4.29327H6.99143V2.81438C6.99143 2.17937 7.35987 1.8201 7.99851 1.8201H11.7566C12.3953 1.8201 12.7555 2.17937 12.7555 2.81438V4.27656H14.0246V2.90629C14.0246 1.33549 13.214 0.60022 11.7321 0.60022H8.01485C6.6148 0.60022 5.72235 1.33549 5.72235 2.90629V4.29327Z" fill="#F3EEFE" fill-opacity="0.85"/>
</g>
<defs>
<clipPath id="clip0_117_3683">
<rect width="19.2" height="16.201" fill="white" transform="translate(0.400391 0.60022)"/>
</clipPath>
</defs>
</svg>
