<svg width="18" height="16" viewBox="0 0 18 16" fill="none" xmlns="http://www.w3.org/2000/svg">
<g clip-path="url(#clip0_117_5210)">
<path d="M3.20723 15.5064H14.5512C16.2868 15.5064 17.1505 14.6427 17.1505 12.9318V2.79141C17.1505 1.08058 16.2868 0.216858 14.5512 0.216858H3.20723C1.47158 0.216858 0.599609 1.07227 0.599609 2.79141V12.9318C0.599609 14.6509 1.47158 15.5064 3.20723 15.5064ZM3.08266 14.1692C2.34356 14.1692 1.93664 13.779 1.93664 13.0066V5.17495C1.93664 4.41089 2.34356 4.01225 3.08266 4.01225H14.6591C15.3982 4.01225 15.8135 4.41089 15.8135 5.17495V13.0066C15.8135 13.779 15.3982 14.1692 14.6591 14.1692H3.08266ZM7.25983 6.99375H7.74976C8.04045 6.99375 8.13179 6.9107 8.13179 6.62002V6.13003C8.13179 5.83935 8.04045 5.74799 7.74976 5.74799H7.25983C6.96917 5.74799 6.86952 5.83935 6.86952 6.13003V6.62002C6.86952 6.9107 6.96917 6.99375 7.25983 6.99375ZM10.0169 6.99375H10.5069C10.7975 6.99375 10.8972 6.9107 10.8972 6.62002V6.13003C10.8972 5.83935 10.7975 5.74799 10.5069 5.74799H10.0169C9.72626 5.74799 9.62662 5.83935 9.62662 6.13003V6.62002C9.62662 6.9107 9.72626 6.99375 10.0169 6.99375ZM12.774 6.99375H13.264C13.5546 6.99375 13.6543 6.9107 13.6543 6.62002V6.13003C13.6543 5.83935 13.5546 5.74799 13.264 5.74799H12.774C12.4833 5.74799 12.392 5.83935 12.392 6.13003V6.62002C12.392 6.9107 12.4833 6.99375 12.774 6.99375ZM4.50273 9.70951H4.98439C5.28336 9.70951 5.3747 9.62645 5.3747 9.33574V8.84575C5.3747 8.55511 5.28336 8.47206 4.98439 8.47206H4.50273C4.20377 8.47206 4.11242 8.55511 4.11242 8.84575V9.33574C4.11242 9.62645 4.20377 9.70951 4.50273 9.70951ZM7.25983 9.70951H7.74976C8.04045 9.70951 8.13179 9.62645 8.13179 9.33574V8.84575C8.13179 8.55511 8.04045 8.47206 7.74976 8.47206H7.25983C6.96917 8.47206 6.86952 8.55511 6.86952 8.84575V9.33574C6.86952 9.62645 6.96917 9.70951 7.25983 9.70951ZM10.0169 9.70951H10.5069C10.7975 9.70951 10.8972 9.62645 10.8972 9.33574V8.84575C10.8972 8.55511 10.7975 8.47206 10.5069 8.47206H10.0169C9.72626 8.47206 9.62662 8.55511 9.62662 8.84575V9.33574C9.62662 9.62645 9.72626 9.70951 10.0169 9.70951ZM12.774 9.70951H13.264C13.5546 9.70951 13.6543 9.62645 13.6543 9.33574V8.84575C13.6543 8.55511 13.5546 8.47206 13.264 8.47206H12.774C12.4833 8.47206 12.392 8.55511 12.392 8.84575V9.33574C12.392 9.62645 12.4833 9.70951 12.774 9.70951ZM4.50273 12.4335H4.98439C5.28336 12.4335 5.3747 12.3422 5.3747 12.0515V11.5615C5.3747 11.2708 5.28336 11.1878 4.98439 11.1878H4.50273C4.20377 11.1878 4.11242 11.2708 4.11242 11.5615V12.0515C4.11242 12.3422 4.20377 12.4335 4.50273 12.4335ZM7.25983 12.4335H7.74976C8.04045 12.4335 8.13179 12.3422 8.13179 12.0515V11.5615C8.13179 11.2708 8.04045 11.1878 7.74976 11.1878H7.25983C6.96917 11.1878 6.86952 11.2708 6.86952 11.5615V12.0515C6.86952 12.3422 6.96917 12.4335 7.25983 12.4335ZM10.0169 12.4335H10.5069C10.7975 12.4335 10.8972 12.3422 10.8972 12.0515V11.5615C10.8972 11.2708 10.7975 11.1878 10.5069 11.1878H10.0169C9.72626 11.1878 9.62662 11.2708 9.62662 11.5615V12.0515C9.62662 12.3422 9.72626 12.4335 10.0169 12.4335Z" fill="#F3EEFE" fill-opacity="0.85"/>
</g>
<defs>
<clipPath id="clip0_117_5210">
<rect width="16.8" height="15.3062" fill="white" transform="translate(0.599609 0.200256)"/>
</clipPath>
</defs>
</svg>
